<svg version="1.1" id="Layer_1" xmlns="http://www.w3.org/2000/svg" xmlns:xlink="http://www.w3.org/1999/xlink" x="0px" y="0px"
	 width="100%" viewBox="0 0 64 64" enable-background="new 0 0 64 64" xml:space="preserve">
<path fill="#000000" opacity="1.000000" stroke="none" 
	d="
M65.000000,23.999840 
	C65.000000,37.999893 65.000000,51.499889 65.000000,64.999908 
	C43.666710,64.999939 22.333418,64.999939 1.000096,64.999969 
	C1.000064,43.666714 1.000064,22.333429 1.000032,1.000107 
	C22.333281,1.000072 43.666561,1.000072 64.999924,1.000036 
	C65.000000,8.499928 65.000000,15.999856 65.000000,23.999840 
M28.954792,4.055333 
	C22.672579,5.551867 16.390364,7.048402 9.583810,8.669844 
	C10.778028,11.287188 11.857996,13.737617 13.015721,16.150742 
	C13.484177,17.127174 14.122355,18.022179 14.683297,18.954239 
	C15.125357,17.900307 15.592253,16.855783 15.996970,15.787702 
	C16.153721,15.374022 16.169722,14.907008 16.257626,14.421297 
	C17.416082,14.777995 18.433945,15.091404 19.677406,15.474276 
	C18.989130,15.924341 18.256414,16.207344 18.276539,16.418648 
	C19.003748,24.054197 15.896820,32.126865 21.597458,39.215206 
	C25.069221,43.532097 23.270576,47.567490 18.012909,48.961258 
	C13.995883,50.026142 10.006135,51.193928 6.341075,52.221504 
	C5.035681,57.551056 6.738626,59.223186 11.809966,59.108902 
	C25.787727,58.793915 39.777233,59.002819 53.762093,58.998817 
	C60.460690,58.996899 60.461174,58.990505 59.565468,52.190414 
	C55.404125,50.975777 51.208218,49.783485 47.032890,48.523037 
	C43.012024,47.309216 41.014439,43.065201 43.825535,39.957672 
	C49.772293,33.383831 47.609402,25.670269 47.910389,18.284521 
	C47.950706,17.295183 46.813053,16.257837 46.236580,15.269617 
	C48.369476,12.619014 55.334934,15.393031 54.935814,8.341376 
	C50.639664,7.448683 46.542088,6.483016 42.401134,5.768859 
	C38.240372,5.051287 34.036419,4.584175 28.954792,4.055333 
M16.269110,21.105133 
	C14.988163,21.105133 13.707215,21.105133 12.218333,21.105133 
	C12.218333,22.779552 12.218333,24.175707 12.218333,25.780880 
	C13.805791,25.780880 15.200505,25.780880 16.895454,25.780880 
	C16.895454,24.294157 16.895454,23.015409 16.269110,21.105133 
z"/>
<path fill="#FFA500" opacity="1.000000" stroke="none" 
	d="
M29.403091,4.031318 
	C34.036419,4.584175 38.240372,5.051287 42.401134,5.768859 
	C46.542088,6.483016 50.639664,7.448683 54.935814,8.341376 
	C55.334934,15.393031 48.369476,12.619014 46.236580,15.269617 
	C46.813053,16.257837 47.950706,17.295183 47.910389,18.284521 
	C47.609402,25.670269 49.772293,33.383831 43.825535,39.957672 
	C41.014439,43.065201 43.012024,47.309216 47.032890,48.523037 
	C51.208218,49.783485 55.404125,50.975777 59.565468,52.190414 
	C60.461174,58.990505 60.460690,58.996899 53.762093,58.998817 
	C39.777233,59.002819 25.787727,58.793915 11.809966,59.108902 
	C6.738626,59.223186 5.035681,57.551056 6.341075,52.221504 
	C10.006135,51.193928 13.995883,50.026142 18.012909,48.961258 
	C23.270576,47.567490 25.069221,43.532097 21.597458,39.215206 
	C15.896820,32.126865 19.003748,24.054197 18.276539,16.418648 
	C18.256414,16.207344 18.989130,15.924341 19.677406,15.474276 
	C18.433945,15.091404 17.416082,14.777995 16.257626,14.421297 
	C16.169722,14.907008 16.153721,15.374022 15.996970,15.787702 
	C15.592253,16.855783 15.125357,17.900307 14.683298,18.954239 
	C14.122355,18.022179 13.484177,17.127174 13.015721,16.150742 
	C11.857996,13.737617 10.778028,11.287188 9.583810,8.669844 
	C16.390364,7.048402 22.672579,5.551867 29.403091,4.031318 
M39.020771,39.465343 
	C41.893463,35.163551 45.454483,31.082754 43.856644,26.054613 
	C36.479794,26.054613 29.382099,26.054613 22.058561,26.054613 
	C20.977880,34.760036 26.488201,39.754147 33.016277,44.032120 
	C35.102871,42.496780 36.804184,41.244938 39.020771,39.465343 
M29.874022,52.993645 
	C39.611290,53.011177 39.611290,53.011177 38.674351,46.233658 
	C34.792587,46.233658 31.016794,46.233658 26.347595,46.233658 
	C27.131100,48.229664 28.057848,50.590580 29.874022,52.993645 
z"/>
<path fill="#FFA600" opacity="1.000000" stroke="none" 
	d="
M16.582283,21.420897 
	C16.895454,23.015409 16.895454,24.294157 16.895454,25.780880 
	C15.200505,25.780880 13.805791,25.780880 12.218333,25.780880 
	C12.218333,24.175707 12.218333,22.779552 12.218333,21.105133 
	C13.707215,21.105133 14.988163,21.105133 16.582283,21.420897 
z"/>
<path fill="#000000" opacity="1.000000" stroke="none" 
	d="
M38.763134,39.729218 
	C36.804184,41.244938 35.102871,42.496780 33.016277,44.032120 
	C26.488201,39.754147 20.977880,34.760036 22.058561,26.054613 
	C29.382099,26.054613 36.479794,26.054613 43.856644,26.054613 
	C45.454483,31.082754 41.893463,35.163551 38.763134,39.729218 
z"/>
<path fill="#000000" opacity="1.000000" stroke="none" 
	d="
M29.429308,52.972572 
	C28.057848,50.590580 27.131100,48.229664 26.347595,46.233658 
	C31.016794,46.233658 34.792587,46.233658 38.674351,46.233658 
	C39.611290,53.011177 39.611290,53.011177 29.429308,52.972572 
z"/>
</svg>