<?xml version="1.0" encoding="UTF-8"?>
<!DOCTYPE svg PUBLIC "-//W3C//DTD SVG 1.1//EN" "http://www.w3.org/Graphics/SVG/1.1/DTD/svg11.dtd">
<svg xmlns="http://www.w3.org/2000/svg" version="1.1" width="50px" height="50px" style="shape-rendering:geometricPrecision; text-rendering:geometricPrecision; image-rendering:optimizeQuality; fill-rule:evenodd; clip-rule:evenodd" xmlns:xlink="http://www.w3.org/1999/xlink">
<g><path style="opacity:0.974" fill="#f19e3b" d="M -0.5,4.5 C 16.1667,4.5 32.8333,4.5 49.5,4.5C 49.5,16.1667 49.5,27.8333 49.5,39.5C 42.8002,39.17 36.1335,39.5033 29.5,40.5C 30.1237,42.754 31.457,44.4206 33.5,45.5C 27.1667,46.8333 20.8333,46.8333 14.5,45.5C 17.1591,44.8409 18.8257,43.1743 19.5,40.5C 12.8665,39.5033 6.19979,39.17 -0.5,39.5C -0.5,27.8333 -0.5,16.1667 -0.5,4.5 Z M 2.5,6.5 C 17.1705,6.33342 31.8371,6.50009 46.5,7C 47.4825,15.081 47.8158,23.2476 47.5,31.5C 32.1667,31.5 16.8333,31.5 1.5,31.5C 1.19808,23.0817 1.53141,14.7483 2.5,6.5 Z M 1.5,33.5 C 8.8409,33.3337 16.1742,33.5003 23.5,34C 22.1667,35 22.1667,36 23.5,37C 16.5,37.6667 9.5,37.6667 2.5,37C 1.66337,35.9887 1.33003,34.8221 1.5,33.5 Z M 25.5,34.5 C 32.6476,33.5084 39.9809,33.175 47.5,33.5C 47.67,34.8221 47.3366,35.9887 46.5,37C 39.5,37.6667 32.5,37.6667 25.5,37C 26.7736,36.0228 26.7736,35.1894 25.5,34.5 Z M 22.5,39.5 C 23.8333,39.5 25.1667,39.5 26.5,39.5C 26.4208,40.9305 26.7542,42.2638 27.5,43.5C 25.5,44.8333 23.5,44.8333 21.5,43.5C 22.2458,42.2638 22.5792,40.9305 22.5,39.5 Z"/></g>
</svg>
